<svg xmlns="http://www.w3.org/2000/svg" viewBox="0 0 180 180" width="180" height="180" role="img" aria-labelledby="title">
  <title id="title">Pool app touch icon</title>
  <defs>
    <clipPath id="drop-clip-lg">
      <path d="M90 30 C90 30 38 80 38 116 a52 52 0 0 0 104 0 C142 80 90 30 90 30 Z" />
    </clipPath>
  </defs>
  <rect width="180" height="180" rx="36" ry="36" fill="#0E2A4E" />
  <path d="M90 30 C90 30 38 80 38 116 a52 52 0 0 0 104 0 C142 80 90 30 90 30 Z"
        fill="#F4ECDF" stroke="#F4ECDF" stroke-width="2" stroke-linejoin="round" />
  <g clip-path="url(#drop-clip-lg)">
    <path d="M28 124 Q50 110 72 124 T116 124 T160 124 V172 H28 Z"
          fill="#0E2A4E" opacity="0.95" />
    <path d="M28 132 Q50 118 72 132 T116 132 T160 132"
          fill="none" stroke="#F4ECDF" stroke-width="3" stroke-linecap="round" />
    <path d="M28 144 Q50 130 72 144 T116 144 T160 144"
          fill="none" stroke="#F4ECDF" stroke-width="2.5" stroke-linecap="round" opacity="0.7" />
    <path d="M28 156 Q50 142 72 156 T116 156 T160 156"
          fill="none" stroke="#F4ECDF" stroke-width="2" stroke-linecap="round" opacity="0.45" />
  </g>
  <path d="M74 56 V108 M74 56 h18 a15 15 0 0 1 0 30 h-18"
        fill="none" stroke="#0E2A4E" stroke-width="9" stroke-linecap="round" stroke-linejoin="round" />
</svg>
